<svg xmlns="http://www.w3.org/2000/svg" width="2560" height="1440" viewBox="0 0 1600 900"><rect x="0" y="0" width="1600" height="900" rx="0" fill="#e3e9d6"/><ellipse cx="760" cy="183" rx="59" ry="59" fill="#f6eed7"/><ellipse cx="175" cy="130" rx="85" ry="19" fill="#f7f3e5"/><ellipse cx="212" cy="117" rx="45" ry="29" fill="#f7f3e5"/><ellipse cx="506" cy="204" rx="85" ry="19" fill="#f7f3e5"/><ellipse cx="543" cy="191" rx="45" ry="29" fill="#f7f3e5"/><ellipse cx="837" cy="130" rx="85" ry="19" fill="#f7f3e5"/><ellipse cx="874" cy="117" rx="45" ry="29" fill="#f7f3e5"/><ellipse cx="1168" cy="204" rx="85" ry="19" fill="#f7f3e5"/><ellipse cx="1205" cy="191" rx="45" ry="29" fill="#f7f3e5"/><ellipse cx="1499" cy="130" rx="85" ry="19" fill="#f7f3e5"/><ellipse cx="1536" cy="117" rx="45" ry="29" fill="#f7f3e5"/><path d="M0 490Q230 304 467 456Q811 240 1050 425Q1350 272 1600 411V900H0Z" fill="#c3d0ab"/><path d="M0 596Q264 423 553 579Q883 410 1195 549Q1410 453 1600 544V900H0Z" fill="#8ea99b"/><path d="M0 731Q315 616 660 708Q1000 598 1600 658V900H0Z" fill="#f6eed7"/><path d="M774 468Q641 589 935 647Q1290 744 718 900H1428Q1556 731 1051 633Q799 576 828 468Z" fill="#a1c7c8"/><ellipse cx="985" cy="648" rx="421" ry="116" fill="#a7cacb"/><g transform="translate(424 632) scale(1.5)"><rect x="-62" y="-82" width="124" height="87" rx="5" fill="#f5e6c7"/><path d="M-77-77L0-140 79-77Z" fill="#d5ac89"/><rect x="-37" y="-58" width="26" height="31" rx="4" fill="#a2c6c6"/><rect x="21" y="-58" width="26" height="31" rx="4" fill="#a2c6c6"/><rect x="-13" y="-35" width="27" height="40" rx="12" fill="#a18c74"/></g><g transform="translate(71 656) scale(0.9)"><rect x="-9" y="-120" width="18" height="125" rx="5" fill="#a38d73"/><ellipse cx="0" cy="-142" rx="65" ry="74" fill="#8ea99b"/><ellipse cx="-38" cy="-112" rx="38" ry="47" fill="#8ea99b"/><ellipse cx="43" cy="-109" rx="37" ry="48" fill="#8ea99b"/></g><g transform="translate(189 656) scale(0.9)"><rect x="-9" y="-120" width="18" height="125" rx="5" fill="#a38d73"/><ellipse cx="0" cy="-142" rx="65" ry="74" fill="#8ea99b"/><ellipse cx="-38" cy="-112" rx="38" ry="47" fill="#8ea99b"/><ellipse cx="43" cy="-109" rx="37" ry="48" fill="#8ea99b"/></g><g transform="translate(307 656) scale(0.9)"><rect x="-9" y="-120" width="18" height="125" rx="5" fill="#a38d73"/><ellipse cx="0" cy="-142" rx="65" ry="74" fill="#8ea99b"/><ellipse cx="-38" cy="-112" rx="38" ry="47" fill="#8ea99b"/><ellipse cx="43" cy="-109" rx="37" ry="48" fill="#8ea99b"/></g><g transform="translate(425 656) scale(0.9)"><rect x="-9" y="-120" width="18" height="125" rx="5" fill="#a38d73"/><ellipse cx="0" cy="-142" rx="65" ry="74" fill="#8ea99b"/><ellipse cx="-38" cy="-112" rx="38" ry="47" fill="#8ea99b"/><ellipse cx="43" cy="-109" rx="37" ry="48" fill="#8ea99b"/></g><g transform="translate(543 656) scale(0.9)"><rect x="-9" y="-120" width="18" height="125" rx="5" fill="#a38d73"/><ellipse cx="0" cy="-142" rx="65" ry="74" fill="#8ea99b"/><ellipse cx="-38" cy="-112" rx="38" ry="47" fill="#8ea99b"/><ellipse cx="43" cy="-109" rx="37" ry="48" fill="#8ea99b"/></g><rect x="553" y="649" width="193" height="17" rx="2" fill="#b69d77"/></svg>