<svg xmlns="http://www.w3.org/2000/svg" width="2048" height="2048" viewBox="0 0 512 512"><defs><linearGradient id="leaf" x2=".8" y2="1"><stop stop-color="#bdd98a"/><stop offset="1" stop-color="#669b5c"/></linearGradient><radialGradient id="bubble" cx=".35" cy=".3"><stop stop-color="#f0faff" stop-opacity=".18"/><stop offset=".65" stop-color="#b3e3eb" stop-opacity=".22"/><stop offset="1" stop-color="#83c7df" stop-opacity=".75"/></radialGradient><radialGradient id="clearBubble" cx=".4" cy=".4"><stop stop-color="#fff" stop-opacity="0"/><stop offset=".8" stop-color="#e8d7ed" stop-opacity=".1"/><stop offset="1" stop-color="#b5d7e4" stop-opacity=".52"/></radialGradient><radialGradient id="smoke"><stop stop-color="#e8e9ed" stop-opacity=".65"/><stop offset="1" stop-color="#c2c8d4" stop-opacity=".12"/></radialGradient></defs><path d="M156 472Q124 412.59998347698746 135.3765283005514 297.59998347698746Q191 397.59998347698746 179 472Z" fill="#86bc69" stroke="#648d50" stroke-width="3" stroke-linecap="round" stroke-linejoin="round"/><path d="M168 465Q154 447.59998347698746 135.3765283005514 317.59998347698746" fill="none" stroke="#c3df93" stroke-width="2" stroke-linecap="round" stroke-linejoin="round"/><path d="M174 472Q142 488.7860205979405 158.84624451002318 373.7860205979405Q209 473.7860205979405 197 472Z" fill="url(#leaf)" stroke="#648d50" stroke-width="3" stroke-linecap="round" stroke-linejoin="round"/><path d="M186 465Q172 523.7860205979405 158.84624451002318 393.7860205979405" fill="none" stroke="#c3df93" stroke-width="2" stroke-linecap="round" stroke-linejoin="round"/><path d="M192 472Q160 456.3642426642516 182.357695711309 341.3642426642516Q227 441.3642426642516 215 472Z" fill="#86bc69" stroke="#648d50" stroke-width="3" stroke-linecap="round" stroke-linejoin="round"/><path d="M204 465Q190 491.3642426642516 182.357695711309 361.3642426642516" fill="none" stroke="#c3df93" stroke-width="2" stroke-linecap="round" stroke-linejoin="round"/><path d="M210 472Q178 412.91422213134746 205.92029664314518 297.91422213134746Q245 397.91422213134746 233 472Z" fill="url(#leaf)" stroke="#648d50" stroke-width="3" stroke-linecap="round" stroke-linejoin="round"/><path d="M222 465Q208 447.91422213134746 205.92029664314518 317.91422213134746" fill="none" stroke="#c3df93" stroke-width="2" stroke-linecap="round" stroke-linejoin="round"/><path d="M228 472Q196 489.20714728667735 229.5421554022408 374.20714728667735Q263 474.20714728667735 251 472Z" fill="#86bc69" stroke="#648d50" stroke-width="3" stroke-linecap="round" stroke-linejoin="round"/><path d="M240 465Q226 524.2071472866774 229.5421554022408 394.20714728667735" fill="none" stroke="#c3df93" stroke-width="2" stroke-linecap="round" stroke-linejoin="round"/><path d="M246 472Q214 455.6247956731879 253.22986631843415 340.6247956731879Q281 440.6247956731879 269 472Z" fill="url(#leaf)" stroke="#648d50" stroke-width="3" stroke-linecap="round" stroke-linejoin="round"/><path d="M258 465Q244 490.6247956731879 253.22986631843415 360.6247956731879" fill="none" stroke="#c3df93" stroke-width="2" stroke-linecap="round" stroke-linejoin="round"/><path d="M264 472Q232 413.2397093086038 276.98834149968 298.2397093086038Q299 398.2397093086038 287 472Z" fill="#86bc69" stroke="#648d50" stroke-width="3" stroke-linecap="round" stroke-linejoin="round"/><path d="M276 465Q262 448.2397093086038 276.98834149968 318.2397093086038" fill="none" stroke="#c3df93" stroke-width="2" stroke-linecap="round" stroke-linejoin="round"/><path d="M282 472Q250 489.6179524106709 300.820685350124 374.6179524106709Q317 474.6179524106709 305 472Z" fill="url(#leaf)" stroke="#648d50" stroke-width="3" stroke-linecap="round" stroke-linejoin="round"/><path d="M294 465Q280 524.6179524106709 300.820685350124 394.6179524106709" fill="none" stroke="#c3df93" stroke-width="2" stroke-linecap="round" stroke-linejoin="round"/><path d="M300 472Q268 454.88452176273603 324.72811526675343 339.88452176273603Q335 439.88452176273603 323 472Z" fill="#86bc69" stroke="#648d50" stroke-width="3" stroke-linecap="round" stroke-linejoin="round"/><path d="M312 465Q298 489.88452176273603 324.72811526675343 359.88452176273603" fill="none" stroke="#c3df93" stroke-width="2" stroke-linecap="round" stroke-linejoin="round"/><path d="M318 472Q286 413.57635298466744 348.70993054046403 298.57635298466744Q353 398.57635298466744 341 472Z" fill="url(#leaf)" stroke="#648d50" stroke-width="3" stroke-linecap="round" stroke-linejoin="round"/><path d="M330 465Q316 448.57635298466744 348.70993054046403 318.57635298466744" fill="none" stroke="#c3df93" stroke-width="2" stroke-linecap="round" stroke-linejoin="round"/><path d="M336 472Q304 490.018319824125 372.76353025597757 375.018319824125Q371 475.018319824125 359 472Z" fill="#86bc69" stroke="#648d50" stroke-width="3" stroke-linecap="round" stroke-linejoin="round"/><path d="M348 465Q334 525.018319824125 372.76353025597757 395.018319824125" fill="none" stroke="#c3df93" stroke-width="2" stroke-linecap="round" stroke-linejoin="round"/></svg>