<svg xmlns="http://www.w3.org/2000/svg" width="2048" height="2048" viewBox="0 0 512 512"><circle cx="379" cy="294.33024848257037" r="15" fill="#a6bb75"/><circle cx="368" cy="286.25465308956905" r="14.8" fill="#a6bb75"/><circle cx="357" cy="276.9818966258551" r="14.600000000000001" fill="#a6bb75"/><circle cx="346" cy="267.08851417647605" r="14.4" fill="#a6bb75"/><circle cx="335" cy="257.18962834431517" r="14.2" fill="#a6bb75"/><circle cx="324" cy="247.90070390594187" r="14" fill="#a6bb75"/><circle cx="313" cy="239.79928119275976" r="13.8" fill="#a6bb75"/><circle cx="302" cy="233.3890674304713" r="13.6" fill="#a6bb75"/><circle cx="291" cy="229.06861866344974" r="13.4" fill="#a6bb75"/><circle cx="280" cy="227.106559470275" r="13.2" fill="#a6bb75"/><circle cx="269" cy="227.62488118849936" r="13" fill="#a6bb75"/><circle cx="258" cy="230.5913570841341" r="12.8" fill="#a6bb75"/><circle cx="247" cy="235.82154605388118" r="12.6" fill="#a6bb75"/><circle cx="236" cy="242.99026027961028" r="12.4" fill="#a6bb75"/><circle cx="225" cy="251.65178383186873" r="12.2" fill="#a6bb75"/><circle cx="214" cy="261.2675851275846" r="12" fill="#a6bb75"/><circle cx="203" cy="271.2398002155671" r="11.8" fill="#a6bb75"/><circle cx="192" cy="280.9484050612842" r="11.6" fill="#a6bb75"/><circle cx="181" cy="289.78976563829264" r="11.4" fill="#a6bb75"/><circle cx="170" cy="297.2141689683482" r="11.2" fill="#a6bb75"/><circle cx="159" cy="302.76000161190103" r="11" fill="#a6bb75"/><circle cx="148" cy="306.08245055597905" r="10.8" fill="#a6bb75"/><circle cx="137" cy="306.9749420172593" r="10.6" fill="#a6bb75"/><circle cx="126" cy="305.38198519939164" r="10.4" fill="#a6bb75"/><circle cx="115" cy="301.40262244195003" r="10.2" fill="#a6bb75"/><circle cx="104" cy="295.2842712474619" r="10" fill="#a6bb75"/><circle cx="382" cy="260" r="7" fill="#393d35"/><circle cx="380" cy="258" r="2" fill="#fff9e2"/></svg>