<svg xmlns="http://www.w3.org/2000/svg" width="2048" height="2048" viewBox="0 0 512 512"><path d="M156 233Q229 143 326 213Q394 269 323 324L291 301Q350 261 303 238Q220 215 164 274Z" fill="#dd9d82" stroke="#b37d6a" stroke-width="5" stroke-linecap="round" stroke-linejoin="round"/><path d="M313 304L361 323 333 354 298 325Z" fill="#d9ad8b" stroke="none" stroke-width="5" stroke-linecap="round" stroke-linejoin="round"/><g transform="rotate(2.204364238465236e-15 199 257)"><path d="M199 253l-17 40 15 14" fill="none" stroke="#bd8472" stroke-width="5" stroke-linecap="round" stroke-linejoin="round"/></g><g transform="rotate(2.204364238465236e-15 222 257)"><path d="M222 253l-17 40 15 14" fill="none" stroke="#bd8472" stroke-width="5" stroke-linecap="round" stroke-linejoin="round"/></g><g transform="rotate(2.204364238465236e-15 245 257)"><path d="M245 253l-17 40 15 14" fill="none" stroke="#bd8472" stroke-width="5" stroke-linecap="round" stroke-linejoin="round"/></g><g transform="rotate(2.204364238465236e-15 268 257)"><path d="M268 253l-17 40 15 14" fill="none" stroke="#bd8472" stroke-width="5" stroke-linecap="round" stroke-linejoin="round"/></g><g transform="rotate(2.204364238465236e-15 291 257)"><path d="M291 253l-17 40 15 14" fill="none" stroke="#bd8472" stroke-width="5" stroke-linecap="round" stroke-linejoin="round"/></g><circle cx="172" cy="229" r="7" fill="#393d35"/><circle cx="170" cy="227" r="2" fill="#fff9e2"/><path d="M159 237Q80 155 101 133M158 247Q76 209 81 190" fill="none" stroke="#bd8472" stroke-width="4" stroke-linecap="round" stroke-linejoin="round"/></svg>