<svg xmlns="http://www.w3.org/2000/svg" width="2048" height="2048" viewBox="0 0 512 512"><defs><linearGradient id="leaf" x2=".8" y2="1"><stop stop-color="#bdd98a"/><stop offset="1" stop-color="#669b5c"/></linearGradient><radialGradient id="bubble" cx=".35" cy=".3"><stop stop-color="#f0faff" stop-opacity=".18"/><stop offset=".65" stop-color="#b3e3eb" stop-opacity=".22"/><stop offset="1" stop-color="#83c7df" stop-opacity=".75"/></radialGradient><radialGradient id="clearBubble" cx=".4" cy=".4"><stop stop-color="#fff" stop-opacity="0"/><stop offset=".8" stop-color="#e8d7ed" stop-opacity=".1"/><stop offset="1" stop-color="#b5d7e4" stop-opacity=".52"/></radialGradient><radialGradient id="smoke"><stop stop-color="#e8e9ed" stop-opacity=".65"/><stop offset="1" stop-color="#c2c8d4" stop-opacity=".12"/></radialGradient></defs><path d="M210 472Q178 571.1707044546915 218.7619530363539 456.1707044546916Q245 556.1707044546915 233 472Z" fill="#86bc69" stroke="#648d50" stroke-width="3" stroke-linecap="round" stroke-linejoin="round"/><path d="M222 465Q208 606.1707044546915 218.7619530363539 476.1707044546916" fill="none" stroke="#c3df93" stroke-width="2" stroke-linecap="round" stroke-linejoin="round"/><path d="M222 472Q190 574.0503096152402 231.26003274610522 459.05030961524017Q257 559.0503096152402 245 472Z" fill="url(#leaf)" stroke="#648d50" stroke-width="3" stroke-linecap="round" stroke-linejoin="round"/><path d="M234 465Q220 609.0503096152402 231.26003274610522 479.05030961524017" fill="none" stroke="#c3df93" stroke-width="2" stroke-linecap="round" stroke-linejoin="round"/><path d="M234 472Q202 577.3804367605926 243.75249162402838 462.38043676059254Q269 562.3804367605926 257 472Z" fill="#86bc69" stroke="#648d50" stroke-width="3" stroke-linecap="round" stroke-linejoin="round"/><path d="M246 465Q232 612.3804367605926 243.75249162402838 482.38043676059254" fill="none" stroke="#c3df93" stroke-width="2" stroke-linecap="round" stroke-linejoin="round"/><path d="M246 472Q214 571.1384281657372 256.239011402689 456.13842816573714Q281 556.1384281657372 269 472Z" fill="url(#leaf)" stroke="#648d50" stroke-width="3" stroke-linecap="round" stroke-linejoin="round"/><path d="M258 465Q244 606.1384281657372 256.239011402689 476.13842816573714" fill="none" stroke="#c3df93" stroke-width="2" stroke-linecap="round" stroke-linejoin="round"/><path d="M258 472Q226 574.1108084683678 268.7194255315166 459.1108084683679Q293 559.1108084683678 281 472Z" fill="#86bc69" stroke="#648d50" stroke-width="3" stroke-linecap="round" stroke-linejoin="round"/><path d="M270 465Q256 609.1108084683678 268.7194255315166 479.1108084683679" fill="none" stroke="#c3df93" stroke-width="2" stroke-linecap="round" stroke-linejoin="round"/><path d="M270 472Q238 577.3516278288783 281.1937234314108 462.35162782887835Q305 562.3516278288783 293 472Z" fill="url(#leaf)" stroke="#648d50" stroke-width="3" stroke-linecap="round" stroke-linejoin="round"/><path d="M282 465Q268 612.3516278288783 281.1937234314108 482.35162782887835" fill="none" stroke="#c3df93" stroke-width="2" stroke-linecap="round" stroke-linejoin="round"/><path d="M282 472Q250 571.1070174665166 293.66205076498915 456.1070174665166Q317 556.1070174665166 305 472Z" fill="#86bc69" stroke="#648d50" stroke-width="3" stroke-linecap="round" stroke-linejoin="round"/><path d="M294 465Q280 606.1070174665166 293.66205076498915 476.1070174665166" fill="none" stroke="#c3df93" stroke-width="2" stroke-linecap="round" stroke-linejoin="round"/></svg>