<svg xmlns="http://www.w3.org/2000/svg" width="2048" height="2048" viewBox="0 0 512 512"><defs><linearGradient id="leaf" x2=".8" y2="1"><stop stop-color="#bdd98a"/><stop offset="1" stop-color="#669b5c"/></linearGradient><radialGradient id="bubble" cx=".35" cy=".3"><stop stop-color="#f0faff" stop-opacity=".18"/><stop offset=".65" stop-color="#b3e3eb" stop-opacity=".22"/><stop offset="1" stop-color="#83c7df" stop-opacity=".75"/></radialGradient><radialGradient id="clearBubble" cx=".4" cy=".4"><stop stop-color="#fff" stop-opacity="0"/><stop offset=".8" stop-color="#e8d7ed" stop-opacity=".1"/><stop offset="1" stop-color="#b5d7e4" stop-opacity=".52"/></radialGradient><radialGradient id="smoke"><stop stop-color="#e8e9ed" stop-opacity=".65"/><stop offset="1" stop-color="#c2c8d4" stop-opacity=".12"/></radialGradient></defs><path d="M156 472Q124 491.7632563702075 150.65444910118603 376.7632563702075Q191 476.7632563702075 179 472Z" fill="#86bc69" stroke="#648d50" stroke-width="3" stroke-linecap="round" stroke-linejoin="round"/><path d="M168 465Q154 526.7632563702075 150.65444910118603 396.7632563702075" fill="none" stroke="#c3df93" stroke-width="2" stroke-linecap="round" stroke-linejoin="round"/><path d="M174 472Q142 532.9659090988862 171.58995181474862 417.9659090988862Q209 517.9659090988862 197 472Z" fill="url(#leaf)" stroke="#648d50" stroke-width="3" stroke-linecap="round" stroke-linejoin="round"/><path d="M186 465Q172 567.9659090988862 171.58995181474862 437.9659090988862" fill="none" stroke="#c3df93" stroke-width="2" stroke-linecap="round" stroke-linejoin="round"/><path d="M192 472Q160 515.4316822571973 192.51753667491718 400.4316822571973Q227 500.4316822571973 215 472Z" fill="#86bc69" stroke="#648d50" stroke-width="3" stroke-linecap="round" stroke-linejoin="round"/><path d="M204 465Q190 550.4316822571973 192.51753667491718 420.4316822571973" fill="none" stroke="#c3df93" stroke-width="2" stroke-linecap="round" stroke-linejoin="round"/><path d="M210 472Q178 491.9332017649124 213.4436517357973 376.9332017649124Q245 476.9332017649124 233 472Z" fill="url(#leaf)" stroke="#648d50" stroke-width="3" stroke-linecap="round" stroke-linejoin="round"/><path d="M222 465Q208 526.9332017649124 213.4436517357973 396.9332017649124" fill="none" stroke="#c3df93" stroke-width="2" stroke-linecap="round" stroke-linejoin="round"/><path d="M228 472Q196 533.1936612876929 234.3747825981541 418.19366128769286Q263 518.1936612876929 251 472Z" fill="#86bc69" stroke="#648d50" stroke-width="3" stroke-linecap="round" stroke-linejoin="round"/><path d="M240 465Q226 568.1936612876929 234.3747825981541 438.19366128769286" fill="none" stroke="#c3df93" stroke-width="2" stroke-linecap="round" stroke-linejoin="round"/><path d="M246 472Q214 515.0317772518262 255.31728673193098 400.03177725182616Q281 500.03177725182616 269 472Z" fill="url(#leaf)" stroke="#648d50" stroke-width="3" stroke-linecap="round" stroke-linejoin="round"/><path d="M258 465Q244 550.0317772518262 255.31728673193098 420.03177725182616" fill="none" stroke="#c3df93" stroke-width="2" stroke-linecap="round" stroke-linejoin="round"/><path d="M264 472Q232 492.109230544449 276.2772310719253 377.109230544449Q299 477.109230544449 287 472Z" fill="#86bc69" stroke="#648d50" stroke-width="3" stroke-linecap="round" stroke-linejoin="round"/><path d="M276 465Q262 527.109230544449 276.2772310719253 397.109230544449" fill="none" stroke="#c3df93" stroke-width="2" stroke-linecap="round" stroke-linejoin="round"/><path d="M282 472Q250 533.4158314057711 297.26023703531087 418.41583140577103Q317 518.4158314057711 305 472Z" fill="url(#leaf)" stroke="#648d50" stroke-width="3" stroke-linecap="round" stroke-linejoin="round"/><path d="M294 465Q280 568.4158314057711 297.26023703531087 438.41583140577103" fill="none" stroke="#c3df93" stroke-width="2" stroke-linecap="round" stroke-linejoin="round"/><path d="M300 472Q268 514.6314250349491 318.2713369201003 399.6314250349491Q335 499.6314250349491 323 472Z" fill="#86bc69" stroke="#648d50" stroke-width="3" stroke-linecap="round" stroke-linejoin="round"/><path d="M312 465Q298 549.6314250349491 318.2713369201003 419.6314250349491" fill="none" stroke="#c3df93" stroke-width="2" stroke-linecap="round" stroke-linejoin="round"/><path d="M318 472Q286 492.29129294068747 339.31484535291247 377.29129294068747Q353 477.29129294068747 341 472Z" fill="url(#leaf)" stroke="#648d50" stroke-width="3" stroke-linecap="round" stroke-linejoin="round"/><path d="M330 465Q316 527.2912929406875 339.31484535291247 397.29129294068747" fill="none" stroke="#c3df93" stroke-width="2" stroke-linecap="round" stroke-linejoin="round"/><path d="M336 472Q304 533.6323566395779 360.3942490699659 418.63235663957784Q371 518.6323566395779 359 472Z" fill="#86bc69" stroke="#648d50" stroke-width="3" stroke-linecap="round" stroke-linejoin="round"/><path d="M348 465Q334 568.6323566395779 360.3942490699659 438.63235663957784" fill="none" stroke="#c3df93" stroke-width="2" stroke-linecap="round" stroke-linejoin="round"/></svg>