<svg xmlns="http://www.w3.org/2000/svg" width="2048" height="2048" viewBox="0 0 512 512"><defs><linearGradient id="leaf" x2=".8" y2="1"><stop stop-color="#bdd98a"/><stop offset="1" stop-color="#669b5c"/></linearGradient><radialGradient id="bubble" cx=".35" cy=".3"><stop stop-color="#f0faff" stop-opacity=".18"/><stop offset=".65" stop-color="#b3e3eb" stop-opacity=".22"/><stop offset="1" stop-color="#83c7df" stop-opacity=".75"/></radialGradient><radialGradient id="clearBubble" cx=".4" cy=".4"><stop stop-color="#fff" stop-opacity="0"/><stop offset=".8" stop-color="#e8d7ed" stop-opacity=".1"/><stop offset="1" stop-color="#b5d7e4" stop-opacity=".52"/></radialGradient><radialGradient id="smoke"><stop stop-color="#e8e9ed" stop-opacity=".65"/><stop offset="1" stop-color="#c2c8d4" stop-opacity=".12"/></radialGradient></defs><path d="M256 463Q147 392 152 165M147 335Q100 298 108 218M147 291Q184 252 186 182" fill="none" stroke="#cf94b5" stroke-width="23" stroke-linecap="round" stroke-linejoin="round"/><ellipse cx="147" cy="165" rx="3" ry="3" fill="#ffe9c7" stroke="none" stroke-width="4"/><ellipse cx="154.57" cy="207" rx="3" ry="3" fill="#ffe9c7" stroke="none" stroke-width="4"/><ellipse cx="155.18" cy="249" rx="3" ry="3" fill="#ffe9c7" stroke="none" stroke-width="4"/><ellipse cx="148.27" cy="291" rx="3" ry="3" fill="#ffe9c7" stroke="none" stroke-width="4"/><ellipse cx="140.19" cy="333" rx="3" ry="3" fill="#ffe9c7" stroke="none" stroke-width="4"/><path d="M256 463Q201 392 203.7015115293407 232M201 335Q154 298 162 285M201 291Q238 252 240 249" fill="none" stroke="#cf94b5" stroke-width="23" stroke-linecap="round" stroke-linejoin="round"/><ellipse cx="208.57" cy="232" rx="3" ry="3" fill="#ffe9c7" stroke="none" stroke-width="4"/><ellipse cx="209.18" cy="274" rx="3" ry="3" fill="#ffe9c7" stroke="none" stroke-width="4"/><ellipse cx="202.27" cy="316" rx="3" ry="3" fill="#ffe9c7" stroke="none" stroke-width="4"/><ellipse cx="194.19" cy="358" rx="3" ry="3" fill="#ffe9c7" stroke="none" stroke-width="4"/><ellipse cx="192.37" cy="400" rx="3" ry="3" fill="#ffe9c7" stroke="none" stroke-width="4"/><path d="M256 463Q255 392 252.9192658172643 299M255 335Q208 298 216 352M255 291Q292 252 294 316" fill="none" stroke="#cf94b5" stroke-width="23" stroke-linecap="round" stroke-linejoin="round"/><ellipse cx="263.18" cy="299" rx="3" ry="3" fill="#ffe9c7" stroke="none" stroke-width="4"/><ellipse cx="256.27" cy="341" rx="3" ry="3" fill="#ffe9c7" stroke="none" stroke-width="4"/><ellipse cx="248.19" cy="383" rx="3" ry="3" fill="#ffe9c7" stroke="none" stroke-width="4"/><ellipse cx="246.37" cy="425" rx="3" ry="3" fill="#ffe9c7" stroke="none" stroke-width="4"/><ellipse cx="252.49" cy="467" rx="3" ry="3" fill="#ffe9c7" stroke="none" stroke-width="4"/><path d="M256 463Q309 392 304.05003751699775 165M309 335Q262 298 270 218M309 291Q346 252 348 182" fill="none" stroke="#cf94b5" stroke-width="23" stroke-linecap="round" stroke-linejoin="round"/><ellipse cx="310.27" cy="165" rx="3" ry="3" fill="#ffe9c7" stroke="none" stroke-width="4"/><ellipse cx="302.19" cy="207" rx="3" ry="3" fill="#ffe9c7" stroke="none" stroke-width="4"/><ellipse cx="300.37" cy="249" rx="3" ry="3" fill="#ffe9c7" stroke="none" stroke-width="4"/><ellipse cx="306.49" cy="291" rx="3" ry="3" fill="#ffe9c7" stroke="none" stroke-width="4"/><ellipse cx="314.91" cy="333" rx="3" ry="3" fill="#ffe9c7" stroke="none" stroke-width="4"/><path d="M256 463Q363 392 359.73178189568193 232M363 335Q316 298 324 285M363 291Q400 252 402 249" fill="none" stroke="#cf94b5" stroke-width="23" stroke-linecap="round" stroke-linejoin="round"/><ellipse cx="356.19" cy="232" rx="3" ry="3" fill="#ffe9c7" stroke="none" stroke-width="4"/><ellipse cx="354.37" cy="274" rx="3" ry="3" fill="#ffe9c7" stroke="none" stroke-width="4"/><ellipse cx="360.49" cy="316" rx="3" ry="3" fill="#ffe9c7" stroke="none" stroke-width="4"/><ellipse cx="368.91" cy="358" rx="3" ry="3" fill="#ffe9c7" stroke="none" stroke-width="4"/><ellipse cx="371.9" cy="400" rx="3" ry="3" fill="#ffe9c7" stroke="none" stroke-width="4"/><ellipse cx="256" cy="461" rx="112" ry="17" fill="#dfbd91" stroke="none" stroke-width="4"/></svg>