<svg xmlns="http://www.w3.org/2000/svg" width="2048" height="2048" viewBox="0 0 512 512"><defs><linearGradient id="leaf" x2=".8" y2="1"><stop stop-color="#bdd98a"/><stop offset="1" stop-color="#669b5c"/></linearGradient><radialGradient id="bubble" cx=".35" cy=".3"><stop stop-color="#f0faff" stop-opacity=".18"/><stop offset=".65" stop-color="#b3e3eb" stop-opacity=".22"/><stop offset="1" stop-color="#83c7df" stop-opacity=".75"/></radialGradient><radialGradient id="clearBubble" cx=".4" cy=".4"><stop stop-color="#fff" stop-opacity="0"/><stop offset=".8" stop-color="#e8d7ed" stop-opacity=".1"/><stop offset="1" stop-color="#b5d7e4" stop-opacity=".52"/></radialGradient><radialGradient id="smoke"><stop stop-color="#e8e9ed" stop-opacity=".65"/><stop offset="1" stop-color="#c2c8d4" stop-opacity=".12"/></radialGradient></defs><g transform="translate(290.66670005121927 145) rotate(-5.65685424949238)"><ellipse cx="0" cy="0" rx="81" ry="81" fill="url(#smoke)" stroke="none" stroke-width="4"/><path d="M-40.5 8C-40.5 -48.6 52.65 -48.6 24.3 6C9.719999999999999 28 -20.25 14 0 2" fill="none" stroke="#c1cbd6" stroke-width="4" stroke-linecap="round" stroke-linejoin="round"/></g><g transform="translate(287.11567854856804 215) rotate(-5.65685424949238)"><ellipse cx="0" cy="0" rx="68" ry="68" fill="url(#smoke)" stroke="none" stroke-width="4"/><path d="M-34 8C-34 -40.8 44.2 -40.8 20.4 6C8.16 28 -17 14 0 2" fill="none" stroke="#c1cbd6" stroke-width="4" stroke-linecap="round" stroke-linejoin="round"/></g><g transform="translate(264.69030397013483 285) rotate(-5.65685424949238)"><ellipse cx="0" cy="0" rx="55" ry="55" fill="url(#smoke)" stroke="none" stroke-width="4"/><path d="M-27.5 8C-27.5 -33 35.75 -33 16.5 6C6.6 28 -13.75 14 0 2" fill="none" stroke="#c1cbd6" stroke-width="4" stroke-linecap="round" stroke-linejoin="round"/></g><g transform="translate(236.9935076159504 355) rotate(-5.65685424949238)"><ellipse cx="0" cy="0" rx="42" ry="42" fill="url(#smoke)" stroke="none" stroke-width="4"/><path d="M-21 8C-21 -25.2 27.3 -25.2 12.6 6C5.04 28 -10.5 14 0 2" fill="none" stroke="#c1cbd6" stroke-width="4" stroke-linecap="round" stroke-linejoin="round"/></g><g transform="translate(220.82579449961887 425) rotate(-5.65685424949238)"><ellipse cx="0" cy="0" rx="29" ry="29" fill="url(#smoke)" stroke="none" stroke-width="4"/><path d="M-14.5 8C-14.5 -17.4 18.85 -17.4 8.7 6C3.48 28 -7.25 14 0 2" fill="none" stroke="#c1cbd6" stroke-width="4" stroke-linecap="round" stroke-linejoin="round"/></g></svg>